# xmcd CD database file
#
# Track frame offsets:
#	150
#	8063
#	21413
#	34801
#	47758
#	64090
#	76878
#	91213
#	112963
#	125301
#
# Disc length: 1895 seconds
#
# Revision: 1
# Processed by: cddbd v1.5.2PL0 Copyright (c) Steve Scherf et al.
# Submitted via: CDex 1.77
#
DISCID=7307650a
DTITLE=Diego Schiavi - Deep To the Bone
DYEAR=2017
DGENRE=Blues
TTITLE0=Help Me Lord
TTITLE1=Son of a Blues Player
TTITLE2=Make me Down a Pallet on Your floor
TTITLE3=I Can't Be Satisfied
TTITLE4=When I Look into Your Eyes (with Andrea Valeri)
TTITLE5=Crossroads Blues
TTITLE6=Rollin 'n' Tumblin
TTITLE7=Deep To The Bone
TTITLE8=Rollin' Down
TTITLE9=Walkin Blues
EXTD=YEAR: 2017
EXTT0=
EXTT1=
EXTT2=
EXTT3=
EXTT4=
EXTT5=
EXTT6=
EXTT7=
EXTT8=
EXTT9=
PLAYORDER=
